<svg width="188" height="72" viewBox="0 0 188 72" fill="none" xmlns="http://www.w3.org/2000/svg">
<path d="M73.35 13.575C75.25 13.575 76.8917 13.9333 78.275 14.65C79.675 15.35 80.7417 16.3583 81.475 17.675C82.225 18.9917 82.6 20.5417 82.6 22.325C82.6 24.1083 82.225 25.6583 81.475 26.975C80.7417 28.275 79.675 29.275 78.275 29.975C76.8917 30.6583 75.25 31 73.35 31H67.925V13.575H73.35ZM73.35 29.125C75.6 29.125 77.3167 28.5333 78.5 27.35C79.6833 26.15 80.275 24.475 80.275 22.325C80.275 20.1583 79.675 18.4667 78.475 17.25C77.2917 16.0333 75.5833 15.425 73.35 15.425H70.2V29.125H73.35ZM98.1008 23.625C98.1008 24.0583 98.0758 24.5167 98.0258 25H87.0758C87.1591 26.35 87.6174 27.4083 88.4508 28.175C89.3008 28.925 90.3258 29.3 91.5258 29.3C92.5091 29.3 93.3258 29.075 93.9758 28.625C94.6424 28.1583 95.1091 27.5417 95.3758 26.775H97.8258C97.4591 28.0917 96.7258 29.1667 95.6258 30C94.5258 30.8167 93.1591 31.225 91.5258 31.225C90.2258 31.225 89.0591 30.9333 88.0258 30.35C87.0091 29.7667 86.2091 28.9417 85.6258 27.875C85.0424 26.7917 84.7508 25.5417 84.7508 24.125C84.7508 22.7083 85.0341 21.4667 85.6008 20.4C86.1674 19.3333 86.9591 18.5167 87.9758 17.95C89.0091 17.3667 90.1924 17.075 91.5258 17.075C92.8258 17.075 93.9758 17.3583 94.9758 17.925C95.9758 18.4917 96.7424 19.275 97.2758 20.275C97.8258 21.2583 98.1008 22.375 98.1008 23.625ZM95.7508 23.15C95.7508 22.2833 95.5591 21.5417 95.1758 20.925C94.7924 20.2917 94.2674 19.8167 93.6008 19.5C92.9508 19.1667 92.2258 19 91.4258 19C90.2758 19 89.2924 19.3667 88.4758 20.1C87.6758 20.8333 87.2174 21.85 87.1008 23.15H95.7508ZM105.954 31.225C104.904 31.225 103.962 31.05 103.129 30.7C102.295 30.3333 101.637 29.8333 101.154 29.2C100.67 28.55 100.404 27.8083 100.354 26.975H102.704C102.77 27.6583 103.087 28.2167 103.654 28.65C104.237 29.0833 104.995 29.3 105.929 29.3C106.795 29.3 107.479 29.1083 107.979 28.725C108.479 28.3417 108.729 27.8583 108.729 27.275C108.729 26.675 108.462 26.2333 107.929 25.95C107.395 25.65 106.57 25.3583 105.454 25.075C104.437 24.8083 103.604 24.5417 102.954 24.275C102.32 23.9917 101.77 23.5833 101.304 23.05C100.854 22.5 100.629 21.7833 100.629 20.9C100.629 20.2 100.837 19.5583 101.254 18.975C101.67 18.3917 102.262 17.9333 103.029 17.6C103.795 17.25 104.67 17.075 105.654 17.075C107.17 17.075 108.395 17.4583 109.329 18.225C110.262 18.9917 110.762 20.0417 110.829 21.375H108.554C108.504 20.6583 108.212 20.0833 107.679 19.65C107.162 19.2167 106.462 19 105.579 19C104.762 19 104.112 19.175 103.629 19.525C103.145 19.875 102.904 20.3333 102.904 20.9C102.904 21.35 103.045 21.725 103.329 22.025C103.629 22.3083 103.995 22.5417 104.429 22.725C104.879 22.8917 105.495 23.0833 106.279 23.3C107.262 23.5667 108.062 23.8333 108.679 24.1C109.295 24.35 109.82 24.7333 110.254 25.25C110.704 25.7667 110.937 26.4417 110.954 27.275C110.954 28.025 110.745 28.7 110.329 29.3C109.912 29.9 109.32 30.375 108.554 30.725C107.804 31.0583 106.937 31.225 105.954 31.225ZM113.315 24.1C113.315 22.7 113.599 21.475 114.165 20.425C114.732 19.3583 115.507 18.5333 116.49 17.95C117.49 17.3667 118.599 17.075 119.815 17.075C121.015 17.075 122.057 17.3333 122.94 17.85C123.824 18.3667 124.482 19.0167 124.915 19.8V17.3H127.215V31H124.915V28.45C124.465 29.25 123.79 29.9167 122.89 30.45C122.007 30.9667 120.974 31.225 119.79 31.225C118.574 31.225 117.474 30.925 116.49 30.325C115.507 29.725 114.732 28.8833 114.165 27.8C113.599 26.7167 113.315 25.4833 113.315 24.1ZM124.915 24.125C124.915 23.0917 124.707 22.1917 124.29 21.425C123.874 20.6583 123.307 20.075 122.59 19.675C121.89 19.2583 121.115 19.05 120.265 19.05C119.415 19.05 118.64 19.25 117.94 19.65C117.24 20.05 116.682 20.6333 116.265 21.4C115.849 22.1667 115.64 23.0667 115.64 24.1C115.64 25.15 115.849 26.0667 116.265 26.85C116.682 27.6167 117.24 28.2083 117.94 28.625C118.64 29.025 119.415 29.225 120.265 29.225C121.115 29.225 121.89 29.025 122.59 28.625C123.307 28.2083 123.874 27.6167 124.29 26.85C124.707 26.0667 124.915 25.1583 124.915 24.125ZM136.635 19.175H133.76V31H131.485V19.175H129.71V17.3H131.485V16.325C131.485 14.7917 131.876 13.675 132.66 12.975C133.46 12.2583 134.735 11.9 136.485 11.9V13.8C135.485 13.8 134.776 14 134.36 14.4C133.96 14.7833 133.76 15.425 133.76 16.325V17.3H136.635V19.175ZM141.562 17.3V31H139.287V17.3H141.562ZM142.862 13.425L137.537 16.275V14.575L142.862 11.45V13.425ZM151.415 31.225C150.131 31.225 148.965 30.9333 147.915 30.35C146.881 29.7667 146.065 28.9417 145.465 27.875C144.881 26.7917 144.59 25.5417 144.59 24.125C144.59 22.725 144.89 21.4917 145.49 20.425C146.106 19.3417 146.94 18.5167 147.99 17.95C149.04 17.3667 150.215 17.075 151.515 17.075C152.815 17.075 153.99 17.3667 155.04 17.95C156.09 18.5167 156.915 19.3333 157.515 20.4C158.131 21.4667 158.44 22.7083 158.44 24.125C158.44 25.5417 158.123 26.7917 157.49 27.875C156.873 28.9417 156.031 29.7667 154.965 30.35C153.898 30.9333 152.715 31.225 151.415 31.225ZM151.415 29.225C152.231 29.225 152.998 29.0333 153.715 28.65C154.431 28.2667 155.006 27.6917 155.44 26.925C155.89 26.1583 156.115 25.225 156.115 24.125C156.115 23.025 155.898 22.0917 155.465 21.325C155.031 20.5583 154.465 19.9917 153.765 19.625C153.065 19.2417 152.306 19.05 151.49 19.05C150.656 19.05 149.89 19.2417 149.19 19.625C148.506 19.9917 147.956 20.5583 147.54 21.325C147.123 22.0917 146.915 23.025 146.915 24.125C146.915 25.2417 147.115 26.1833 147.515 26.95C147.931 27.7167 148.481 28.2917 149.165 28.675C149.848 29.0417 150.598 29.225 151.415 29.225Z" fill="#0F1E33"/>
<path d="M76.65 50.025C77.2833 50.125 77.8583 50.3833 78.375 50.8C78.9083 51.2167 79.325 51.7333 79.625 52.35C79.9417 52.9667 80.1 53.625 80.1 54.325C80.1 55.2083 79.875 56.0083 79.425 56.725C78.975 57.425 78.3167 57.9833 77.45 58.4C76.6 58.8 75.5917 59 74.425 59H67.925V41.575H74.175C75.3583 41.575 76.3667 41.775 77.2 42.175C78.0333 42.5583 78.6583 43.0833 79.075 43.75C79.4917 44.4167 79.7 45.1667 79.7 46C79.7 47.0333 79.4167 47.8917 78.85 48.575C78.3 49.2417 77.5667 49.725 76.65 50.025ZM70.2 49.1H74.025C75.0917 49.1 75.9167 48.85 76.5 48.35C77.0833 47.85 77.375 47.1583 77.375 46.275C77.375 45.3917 77.0833 44.7 76.5 44.2C75.9167 43.7 75.075 43.45 73.975 43.45H70.2V49.1ZM74.225 57.125C75.3583 57.125 76.2417 56.8583 76.875 56.325C77.5083 55.7917 77.825 55.05 77.825 54.1C77.825 53.1333 77.4917 52.375 76.825 51.825C76.1583 51.2583 75.2667 50.975 74.15 50.975H70.2V57.125H74.225ZM82.407 52.1C82.407 50.7 82.6904 49.475 83.257 48.425C83.8237 47.3583 84.5987 46.5333 85.582 45.95C86.582 45.3667 87.6904 45.075 88.907 45.075C90.107 45.075 91.1487 45.3333 92.032 45.85C92.9154 46.3667 93.5737 47.0167 94.007 47.8V45.3H96.307V59H94.007V56.45C93.557 57.25 92.882 57.9167 91.982 58.45C91.0987 58.9667 90.0654 59.225 88.882 59.225C87.6654 59.225 86.5654 58.925 85.582 58.325C84.5987 57.725 83.8237 56.8833 83.257 55.8C82.6904 54.7167 82.407 53.4833 82.407 52.1ZM94.007 52.125C94.007 51.0917 93.7987 50.1917 93.382 49.425C92.9654 48.6583 92.3987 48.075 91.682 47.675C90.982 47.2583 90.207 47.05 89.357 47.05C88.507 47.05 87.732 47.25 87.032 47.65C86.332 48.05 85.7737 48.6333 85.357 49.4C84.9404 50.1667 84.732 51.0667 84.732 52.1C84.732 53.15 84.9404 54.0667 85.357 54.85C85.7737 55.6167 86.332 56.2083 87.032 56.625C87.732 57.025 88.507 57.225 89.357 57.225C90.207 57.225 90.982 57.025 91.682 56.625C92.3987 56.2083 92.9654 55.6167 93.382 54.85C93.7987 54.0667 94.007 53.1583 94.007 52.125ZM102.427 47.525C102.827 46.7417 103.393 46.1333 104.127 45.7C104.877 45.2667 105.785 45.05 106.852 45.05V47.4H106.252C103.702 47.4 102.427 48.7833 102.427 51.55V59H100.152V45.3H102.427V47.525ZM110.653 43.075C110.219 43.075 109.853 42.925 109.553 42.625C109.253 42.325 109.103 41.9583 109.103 41.525C109.103 41.0917 109.253 40.725 109.553 40.425C109.853 40.125 110.219 39.975 110.653 39.975C111.069 39.975 111.419 40.125 111.703 40.425C112.003 40.725 112.153 41.0917 112.153 41.525C112.153 41.9583 112.003 42.325 111.703 42.625C111.419 42.925 111.069 43.075 110.653 43.075ZM111.753 45.3V59H109.478V45.3H111.753ZM117.905 40.5V59H115.63V40.5H117.905ZM127.757 59.225C126.474 59.225 125.307 58.9333 124.257 58.35C123.224 57.7667 122.407 56.9417 121.807 55.875C121.224 54.7917 120.932 53.5417 120.932 52.125C120.932 50.725 121.232 49.4917 121.832 48.425C122.449 47.3417 123.282 46.5167 124.332 45.95C125.382 45.3667 126.557 45.075 127.857 45.075C129.157 45.075 130.332 45.3667 131.382 45.95C132.432 46.5167 133.257 47.3333 133.857 48.4C134.474 49.4667 134.782 50.7083 134.782 52.125C134.782 53.5417 134.466 54.7917 133.832 55.875C133.216 56.9417 132.374 57.7667 131.307 58.35C130.241 58.9333 129.057 59.225 127.757 59.225ZM127.757 57.225C128.574 57.225 129.341 57.0333 130.057 56.65C130.774 56.2667 131.349 55.6917 131.782 54.925C132.232 54.1583 132.457 53.225 132.457 52.125C132.457 51.025 132.241 50.0917 131.807 49.325C131.374 48.5583 130.807 47.9917 130.107 47.625C129.407 47.2417 128.649 47.05 127.832 47.05C126.999 47.05 126.232 47.2417 125.532 47.625C124.849 47.9917 124.299 48.5583 123.882 49.325C123.466 50.0917 123.257 51.025 123.257 52.125C123.257 53.2417 123.457 54.1833 123.857 54.95C124.274 55.7167 124.824 56.2917 125.507 56.675C126.191 57.0417 126.941 57.225 127.757 57.225ZM136.924 52.125C136.924 50.7083 137.207 49.475 137.774 48.425C138.34 47.3583 139.124 46.5333 140.124 45.95C141.14 45.3667 142.299 45.075 143.599 45.075C145.282 45.075 146.665 45.4833 147.749 46.3C148.849 47.1167 149.574 48.25 149.924 49.7H147.474C147.24 48.8667 146.782 48.2083 146.099 47.725C145.432 47.2417 144.599 47 143.599 47C142.299 47 141.249 47.45 140.449 48.35C139.649 49.2333 139.249 50.4917 139.249 52.125C139.249 53.775 139.649 55.05 140.449 55.95C141.249 56.85 142.299 57.3 143.599 57.3C144.599 57.3 145.432 57.0667 146.099 56.6C146.765 56.1333 147.224 55.4667 147.474 54.6H149.924C149.557 56 148.824 57.125 147.724 57.975C146.624 58.8083 145.249 59.225 143.599 59.225C142.299 59.225 141.14 58.9333 140.124 58.35C139.124 57.7667 138.34 56.9417 137.774 55.875C137.207 54.8083 136.924 53.5583 136.924 52.125ZM159.759 45.05C160.793 45.05 161.726 45.275 162.559 45.725C163.393 46.1583 164.043 46.8167 164.509 47.7C164.993 48.5833 165.234 49.6583 165.234 50.925V59H162.984V51.25C162.984 49.8833 162.643 48.8417 161.959 48.125C161.276 47.3917 160.343 47.025 159.159 47.025C157.959 47.025 157.001 47.4 156.284 48.15C155.584 48.9 155.234 49.9917 155.234 51.425V59H152.959V40.5H155.234V47.25C155.684 46.55 156.301 46.0083 157.084 45.625C157.884 45.2417 158.776 45.05 159.759 45.05ZM181.45 51.625C181.45 52.0583 181.425 52.5167 181.375 53H170.425C170.509 54.35 170.967 55.4083 171.8 56.175C172.65 56.925 173.675 57.3 174.875 57.3C175.859 57.3 176.675 57.075 177.325 56.625C177.992 56.1583 178.459 55.5417 178.725 54.775H181.175C180.809 56.0917 180.075 57.1667 178.975 58C177.875 58.8167 176.509 59.225 174.875 59.225C173.575 59.225 172.409 58.9333 171.375 58.35C170.359 57.7667 169.559 56.9417 168.975 55.875C168.392 54.7917 168.1 53.5417 168.1 52.125C168.1 50.7083 168.384 49.4667 168.95 48.4C169.517 47.3333 170.309 46.5167 171.325 45.95C172.359 45.3667 173.542 45.075 174.875 45.075C176.175 45.075 177.325 45.3583 178.325 45.925C179.325 46.4917 180.092 47.275 180.625 48.275C181.175 49.2583 181.45 50.375 181.45 51.625ZM179.1 51.15C179.1 50.2833 178.909 49.5417 178.525 48.925C178.142 48.2917 177.617 47.8167 176.95 47.5C176.3 47.1667 175.575 47 174.775 47C173.625 47 172.642 47.3667 171.825 48.1C171.025 48.8333 170.567 49.85 170.45 51.15H179.1Z" fill="#0F1E33"/>
<g clip-path="url(#clip0)">
<path d="M0.0972395 51.9761C0.0907559 51.848 0.0713053 51.7198 0.0713053 51.5916C0.0713053 44.7717 0.0648217 37.9453 0.0648217 31.1254C0.0648217 31.0806 0.0907559 31.0357 0.103723 30.9972C0.635375 32.1189 1.14109 33.247 1.69219 34.3559C2.89814 36.7531 4.15594 39.1183 5.88705 41.1886C7.16431 42.7206 8.68147 43.932 10.6525 44.4896C11.3268 44.6819 12.014 44.7909 12.7207 44.8806C12.6818 44.7268 12.5781 44.6819 12.5003 44.6178C11.411 43.6179 10.3153 42.6244 9.22608 41.6245C6.63915 39.2593 4.20133 36.7596 2.19143 33.8816C1.69219 33.1637 1.17351 32.4458 0.803947 31.651C0.667792 31.3626 0.661309 31.0165 0.330647 30.837C1.78296 29.0295 2.82682 26.972 3.99386 24.9914C4.56441 24.0235 5.1609 23.0749 5.69903 22.0878C6.38629 20.8251 7.02168 19.5367 7.67652 18.2612C8.27949 17.0882 8.91487 15.9281 9.7707 14.9089C10.4191 14.1398 11.1517 13.4732 12.2345 13.3386C13.1162 13.2296 13.8489 13.5757 14.5556 14.018C15.5929 14.6654 16.4228 15.5435 17.2722 16.4088C18.5754 17.742 19.7424 19.197 20.8511 20.6905C22.3164 22.6582 24.1123 24.2671 26.1028 25.6836C26.9651 26.2989 27.8339 26.8951 28.7027 27.4976C28.7481 27.5296 28.787 27.5809 28.8583 27.5552C28.9166 27.504 28.8907 27.4463 28.8518 27.4014C27.8274 26.2092 27.0559 24.8311 26.1482 23.5556C25.9407 23.2608 25.7397 22.9595 25.5193 22.6711C25.422 22.5429 25.3831 22.4275 25.4544 22.2865C26.1871 20.9084 26.615 19.4149 27.1077 17.9471C27.6329 16.3896 28.2359 14.8641 28.9361 13.3706C29.8438 11.4413 30.6672 9.46711 31.6851 7.58267C32.4113 6.23663 33.1893 4.91624 34.3174 3.83941C34.7129 3.46765 35.1473 3.13434 35.666 2.96128C36.4959 2.67926 37.2091 2.92282 37.8445 3.48688C39.018 4.53166 39.8868 5.80718 40.7037 7.11476C42.2598 9.60813 43.576 12.2297 44.8532 14.8705C45.6572 16.5306 46.4352 18.2035 47.2392 19.8636C47.7968 21.0174 48.5942 22.0173 49.3852 23.0172C50.8181 24.8311 52.3547 26.5425 54.0599 28.1129C54.3192 28.35 54.598 28.568 54.8703 28.7859C54.9676 28.8628 55.0324 28.9205 54.9805 29.0679C54.9416 29.1833 54.9676 29.3243 54.9676 29.4525C54.9676 43.4705 54.9676 57.4821 54.9676 71.5001C54.9676 72.0513 55.0389 71.9872 54.4813 71.9872C41.4364 71.9872 28.3915 71.9872 15.3466 71.9872C14.2768 70.5258 13.784 68.8657 13.7386 67.0774C13.6868 65.0519 14.199 63.129 14.964 61.2638C15.5281 59.8921 16.2607 58.623 17.3889 57.6103C19.4896 55.7322 22.1997 56.1489 23.9827 57.7961C24.9552 58.6935 25.422 59.9177 25.8434 61.1356C26.401 62.7508 26.7252 64.4173 26.9586 66.1095C26.9716 66.2121 26.9327 66.3723 27.1142 66.3723C27.3022 66.3723 27.2504 66.2121 27.2569 66.1095C27.3606 64.8853 27.3217 63.661 27.1207 62.4496C26.7771 60.3792 26.0833 58.4499 24.6829 56.8347C23.3927 55.3348 21.7782 54.4503 19.7359 54.5913C17.9076 54.7195 16.4228 55.604 15.2493 56.9308C12.3576 60.2062 11.5342 64.0905 11.9362 68.3144C12.0594 69.5836 12.4095 70.8078 12.8893 71.9936C8.73982 71.9936 4.59034 71.9936 0.440868 72C0.142624 72 0.0648217 71.9103 0.0713053 71.6282C0.0907559 70.8847 0.0777888 70.1348 0.0777888 69.3913C0.0777888 69.2695 0.123174 69.1349 0.00646973 69.0259C0.278779 68.8785 0.49922 68.667 0.706694 68.449C2.91759 66.1864 4.4088 63.5136 5.30353 60.5139C5.56936 59.6165 6.11398 59.1037 7.00223 58.8858C7.83212 58.6807 8.68147 58.6358 9.52433 58.5461C11.2943 58.3474 11.8584 57.9051 12.215 56.3604C12.5586 54.8926 12.7791 53.4055 12.8634 51.8992C12.8698 51.7646 12.9606 51.5595 12.7596 51.5018C12.5262 51.4377 12.5586 51.6813 12.5068 51.8031C12.202 52.5466 11.9232 53.303 11.6055 54.0465C11.2295 54.931 10.8146 55.7899 10.2699 56.5847C9.91334 57.0975 9.49191 57.3667 8.81114 57.2577C8.0785 57.1424 7.3264 57.2385 6.60673 57.45C4.99881 57.9243 4.02627 59.0717 3.39737 60.5395C2.78791 61.9624 2.43132 63.4623 1.97747 64.9301C1.75055 65.6544 1.55604 66.3915 1.10219 67.0197C0.849332 67.3658 0.531638 67.603 0.0907559 67.6542C0.0842724 67.494 0.0777888 67.3273 0.0777888 67.1671C0.0777888 63.5905 0.0777888 60.0139 0.0777888 56.4309C0.0777888 56.2578 0.0713053 56.0784 0.0648217 55.9053C0.661309 54.6362 1.48472 53.5209 2.4767 52.5274C3.55946 51.4377 4.8821 51.1173 6.36684 51.348C7.63113 51.5467 8.77872 52.0531 9.86147 52.7197C9.96521 52.7838 10.0819 52.9632 10.2246 52.7966C10.3607 52.6363 10.1727 52.5466 10.1014 52.4441C9.66048 51.848 9.15477 51.316 8.55828 50.8673C6.8531 49.5789 4.98584 49.1815 2.93704 49.9315C1.79593 50.3545 0.9012 51.1044 0.0972395 51.9761ZM29.176 64.0584C29.15 64.584 29.2214 65.5198 29.1241 66.4492C29.1111 66.5518 29.0658 66.712 29.2538 66.7184C29.4418 66.7184 29.3835 66.5582 29.3899 66.4556C29.4159 65.1737 29.5391 63.8982 29.7465 62.629C30.142 60.1613 30.8228 57.7833 31.938 55.5335C33.0791 53.226 34.6157 51.2326 36.6969 49.6623C38.0844 48.6175 39.6599 47.9573 41.2678 47.3227C43.6149 46.3933 45.7674 45.1562 47.4207 43.2077C48.6655 41.7399 49.4241 40.0734 49.2426 38.112C49.0221 35.7084 47.7579 34.0418 45.4886 33.1253C44.5161 32.7343 43.5046 32.4394 42.5062 32.1254C40.3407 31.4331 38.1492 30.8242 36.0745 29.8884C35.4002 29.5807 34.7324 29.2474 34.2267 28.6834C33.8636 28.2795 33.8701 27.9014 34.2396 27.504C34.6351 27.0809 35.1409 26.831 35.6595 26.6066C37.0341 26.0041 38.5058 25.7028 39.9387 25.267C41.2937 24.8568 42.6164 24.3632 43.7769 23.5236C45.4951 22.2673 45.7285 20.6648 44.4188 18.9919C43.8937 18.3253 43.2518 17.7741 42.5516 17.2933C41.6244 16.6524 40.6519 16.2357 39.4654 16.2806C38.441 16.3127 37.4231 16.0819 36.4959 15.6076C35.5039 15.1012 35.1084 14.3898 35.2122 13.3001C35.2446 12.9732 35.3483 12.6655 35.4715 12.3579C35.8605 11.39 36.4635 10.5632 37.1119 9.75555C37.2026 9.64018 37.436 9.5248 37.2675 9.36456C37.1054 9.21714 36.9822 9.44147 36.872 9.53762C36.1393 10.1465 35.4456 10.8003 34.8426 11.531C34.1943 12.3258 33.6043 13.1463 33.4227 14.1911C33.3319 14.7166 33.507 15.1076 33.8895 15.4281C34.2721 15.7486 34.7065 15.9794 35.1733 16.1588C36.4051 16.6331 37.6435 17.0818 38.8689 17.569C39.9257 17.9856 40.9501 18.4535 41.7476 19.2996C42.5127 20.1136 42.6034 21.2545 41.9486 22.1583C41.3715 22.9531 40.5157 23.3569 39.6469 23.7287C38.1752 24.3632 36.6061 24.7286 35.0955 25.2606C34.1359 25.6003 33.1958 25.9592 32.3853 26.6002C31.8991 26.9848 31.5619 27.4719 31.4582 28.0873C31.3285 28.8821 31.6981 29.4589 32.327 29.9076C33.5589 30.7857 34.9852 31.2024 36.4051 31.6382C38.5966 32.3176 40.8334 32.8625 42.986 33.6637C44.3151 34.1572 45.6053 34.7277 46.6945 35.6571C48.095 36.8493 48.283 38.4068 47.1808 39.8747C46.3315 41.0092 45.2163 41.8488 44.0557 42.6308C42.1496 43.9192 40.1137 44.9704 38.0455 45.9639C35.1149 47.374 32.1195 48.6239 29.1111 49.8545C27.4643 50.5276 25.8045 51.1685 24.2096 51.9505C23.9113 52.0979 23.6196 52.2518 23.4056 52.5146C23.2176 52.7453 23.2435 53.0017 23.4769 53.1812C23.6066 53.2837 23.7428 53.3735 23.8854 53.4504C24.7607 53.9375 25.61 54.4631 26.427 55.04C26.8484 55.3348 27.2893 55.6104 27.6264 56.0143C28.3461 56.8667 28.6768 57.8795 28.8907 58.9371C29.2019 60.5074 29.2149 62.0778 29.176 64.0584ZM19.7554 50.4506C19.7813 50.3609 19.8072 50.3225 19.8072 50.2776C19.7878 49.2584 20.0277 48.2842 20.3454 47.3291C20.6047 46.5407 20.9354 45.7908 21.6097 45.2267C22.9647 44.0986 24.3133 42.9641 25.6295 41.7912C26.8873 40.6759 28.1127 39.5285 29.0463 38.112C30.1226 36.4711 30.9525 34.7085 31.737 32.9202C32.0158 32.2792 32.3011 31.6382 32.5215 30.9716C32.5604 30.8434 32.5928 30.7088 32.4567 30.6255C32.34 30.555 32.2297 30.6255 32.1325 30.696C31.8602 30.8883 31.6397 31.1254 31.4776 31.4203C30.9006 32.4779 30.2847 33.5163 29.6428 34.5354C28.573 36.2276 27.5032 37.9261 26.0509 39.3363C24.0799 41.2399 21.9014 42.9 19.6841 44.5089C19.4377 44.6883 19.2561 44.8999 19.1135 45.1627C18.5819 46.1626 18.4133 47.2138 18.6467 48.3162C18.8023 49.1046 19.1459 49.8225 19.7554 50.4506ZM13.0903 37.5608C13.0903 38.3556 13.4015 39.4196 13.9331 40.4259C14.1341 40.8105 14.4453 41.0476 14.8862 41.1246C15.3077 41.1951 15.7356 41.1566 16.157 41.1694C16.5655 41.1822 16.6498 41.272 16.6044 41.6758C16.572 41.977 16.5071 42.2719 16.4034 42.5603C16.1829 43.1628 15.956 43.7589 15.7291 44.3614C15.6967 44.4576 15.6254 44.5666 15.7615 44.6371C15.8588 44.6819 15.8977 44.5922 15.956 44.5281C16.8702 43.4961 17.3565 42.2398 17.7584 40.9579C18.0308 40.1054 17.7066 39.7272 16.8054 39.7016C15.6254 39.6696 14.6204 38.9388 14.2379 37.8364C13.9072 36.8685 14.0369 35.9071 14.2833 34.9456C14.4259 34.3816 14.6334 33.8367 14.8538 33.2919C14.8992 33.1894 15.0353 33.0548 14.8733 32.9522C14.6852 32.8304 14.6528 33.0612 14.5491 33.1253C14.5296 33.1381 14.5167 33.1573 14.5037 33.1765C13.596 34.3816 13.0903 35.7084 13.0903 37.5608Z" fill="#0F1E33"/>
<path d="M25.7332 15.0115C25.7527 15.2551 25.5906 15.4281 25.4868 15.614C24.819 16.8703 24.1383 18.1202 23.464 19.3701C23.1917 19.8701 23.1852 19.8701 22.8286 19.4278C22.4136 18.9214 22.0635 18.3702 21.694 17.8318C21.6486 17.7613 21.6097 17.6908 21.6097 17.6074C21.7847 16.5114 21.8625 15.4025 21.9857 14.2936C22.0895 13.3514 22.1867 12.4028 22.284 11.4605C22.3942 10.4029 22.5044 9.33894 22.6146 8.28134C22.7184 7.24297 22.8286 6.2046 22.9323 5.17264C23.0166 4.36502 23.0944 3.5574 23.1722 2.74978C23.263 1.83961 23.3602 0.929432 23.451 0.0192566C24.2096 0.0192566 24.9682 0.0192566 25.7203 0.0192566C25.7203 4.8778 25.7203 9.73634 25.7203 14.5885C25.7138 14.7359 25.7267 14.8769 25.7332 15.0115Z" fill="#0F1E33"/>
<path d="M51.4145 0.0256348C52.3287 0.0256348 53.2429 0.0256348 54.1636 0.0256348C53.6125 1.28834 53.0549 2.55105 52.5038 3.81376C51.434 6.24944 50.3772 8.67871 49.3009 11.108C48.86 12.1015 48.471 13.1206 47.9588 14.0885C47.8032 14.0052 47.7513 13.8385 47.68 13.6975C46.9992 12.3643 46.3249 11.0247 45.6442 9.69144C45.5988 9.6017 45.5469 9.50556 45.5599 9.3966C45.6053 9.34532 45.6571 9.30045 45.696 9.24276C47.3299 6.64043 48.9702 4.04451 50.5976 1.43577C50.8829 0.974268 51.22 0.53841 51.4145 0.0256348Z" fill="#0F1E33"/>
<path d="M18.5365 0.0384688C19.4117 -0.0192184 20.2935 0.00642033 21.1688 0.0256494C21.1688 5.4867 21.1688 10.9478 21.1688 16.4152C21.1688 16.5498 21.2142 16.6972 21.1234 16.8254C20.7798 16.5434 20.6242 16.1332 20.3972 15.7678C19.7554 14.7295 19.1394 13.6719 18.504 12.6271C18.4457 12.5309 18.3938 12.4476 18.4198 12.3387C18.4911 12.2874 18.4716 12.2169 18.4781 12.1464C18.4976 8.10826 18.4327 4.07016 18.5365 0.0384688Z" fill="#0F1E33"/>
<path d="M28.3396 0.0256348C30.0448 0.0256348 31.7564 0.0256348 33.5135 0.0256348C33.3384 0.32048 33.1634 0.602506 33.0078 0.897352C32.3335 2.14083 31.8148 3.44841 31.2507 4.74316C30.5246 6.38404 29.6169 7.93519 28.774 9.51838C28.0868 10.8131 27.3865 12.1079 26.6863 13.3962C26.602 13.5501 26.5307 13.7103 26.3751 13.8065C26.3556 13.2616 26.4983 12.7296 26.5631 12.1976C26.7511 10.7554 26.9651 9.31327 27.1791 7.8775C27.4384 6.09561 27.7042 4.31371 27.9636 2.52541C28.0868 1.68574 28.2813 0.865304 28.3396 0.0256348Z" fill="#0F1E33"/>
<path d="M0.0972503 7.98006C0.0648326 6.30713 0.0648326 4.62779 0.0972503 2.94846C0.628902 3.65352 1.0633 4.42268 1.53012 5.16621C3.0343 7.53779 4.532 9.91578 6.04267 12.2874C6.48355 12.9796 6.89202 13.7039 7.38477 14.3641C7.2551 14.8448 6.95685 15.2358 6.72344 15.6653C6.3863 16.287 6.02322 16.9023 5.67311 17.5177C5.63421 17.5882 5.59531 17.6587 5.51102 17.6907C5.14794 17.0113 4.78486 16.3383 4.42827 15.6589C3.10562 13.1463 1.77649 10.6401 0.460329 8.12107C0.36956 7.96083 0.291757 7.85187 0.0972503 7.98006Z" fill="#0F1E33"/>
<path d="M9.54378 10.6401C9.15477 11.281 8.77872 11.9284 8.38322 12.5694C8.12388 12.9924 7.96179 13.4667 7.63761 13.8513C7.47552 13.6078 7.39124 13.3257 7.27454 13.0629C6.09453 10.3132 4.921 7.56343 3.73451 4.81367C3.04726 3.21766 2.36 1.62165 1.66626 0.0256348C2.38593 0.0256348 3.09913 0.0256348 3.8188 0.0256348C3.79935 0.141009 3.87067 0.224335 3.92254 0.314071C4.24671 0.922991 4.57089 1.5255 4.89507 2.12801C6.25013 4.6342 7.6052 7.1468 8.97323 9.65298C9.15477 9.98629 9.28444 10.3516 9.54378 10.6401Z" fill="#0F1E33"/>
<path d="M6.28253 0.0256348C7.52737 0.0256348 8.76573 0.0256348 10.0106 0.0256348C10.6784 1.80753 11.3462 3.58301 12.0205 5.3649C12.2928 6.0892 12.591 6.80708 12.8698 7.53138C11.6833 8.08902 10.8145 8.99278 10.043 10.0119C10.0171 10.044 9.96519 10.0632 9.93277 10.0888C9.67343 9.59529 9.53079 9.05688 9.33629 8.5377C8.61013 6.56351 7.89045 4.58292 7.18375 2.60233C6.87902 1.74343 6.52891 0.903762 6.28253 0.0256348Z" fill="#0F1E33"/>
<path d="M17.3564 10.7234C16.9998 10.4414 16.8248 10.0247 16.546 9.69144C15.9884 9.01843 15.5021 8.28772 14.7501 7.78777C14.4907 7.61471 14.1925 7.55702 13.9137 7.42882C13.6997 6.42891 13.4858 5.43541 13.2653 4.4355C12.9411 2.96768 12.617 1.49987 12.2928 0.0256377C13.5765 -9.94187e-07 14.8603 -9.94187e-07 16.1375 0.0256377C16.157 0.160241 16.1829 0.294845 16.2024 0.435858C16.3061 1.3909 16.3969 2.34594 16.5006 3.29458C16.6108 4.25603 16.7275 5.21748 16.8442 6.17894C16.9285 6.90323 17.0387 7.62112 17.1101 8.34541C17.1879 9.14021 17.3629 9.92219 17.3564 10.7234Z" fill="#0F1E33"/>
<path d="M45.0088 8.339C44.6782 7.96724 44.5226 7.49933 44.2956 7.06988C43.5954 5.74948 42.9017 4.42909 42.1366 3.14715C42.1042 3.08946 42.0912 3.01896 42.0718 2.95486C42.1107 2.92922 42.1561 2.90358 42.182 2.87154C42.8498 1.94854 43.4917 1.01273 44.0557 0.0256348C45.3589 0.0256348 46.6621 0.0256348 47.9653 0.0256348C47.9524 0.0897316 47.9459 0.160238 47.9199 0.224335C47.4531 1.54473 46.9863 2.87154 46.513 4.19193C46.0138 5.57642 45.5145 6.9545 45.0088 8.339Z" fill="#0F1E33"/>
<path d="M48.3738 14.9346C48.7304 14.5628 48.9573 14.1013 49.2361 13.6719C51.1228 10.7683 52.9966 7.85187 54.8768 4.94828C54.8962 4.92264 54.9287 4.90341 54.9546 4.88419C54.9546 6.08921 54.9546 7.30064 54.9546 8.50566C54.7666 8.41592 54.6888 8.5313 54.611 8.67872C54.0728 9.69786 53.5347 10.717 52.9966 11.7297C51.9462 13.7039 50.8959 15.6717 49.8455 17.6459C49.4436 17.1267 49.1907 16.5306 48.873 15.9601C48.698 15.6268 48.4581 15.3127 48.3738 14.9346Z" fill="#0F1E33"/>
<path d="M0.0972503 16.0499C0.0648326 14.691 0.0648326 13.3322 0.0972503 11.9669C0.168569 12.031 0.246372 12.0823 0.298241 12.1528C1.37451 13.4796 2.4443 14.8128 3.53353 16.1268C4.0976 16.8062 4.6098 17.5305 5.23223 18.1586C5.17387 18.4919 4.94695 18.7355 4.78486 19.0111C4.38288 19.7162 3.96145 20.4084 3.5465 21.1071C3.5076 21.1776 3.4687 21.2481 3.38441 21.2802C2.67771 20.1456 1.97748 19.0111 1.26429 17.883C0.881761 17.2805 0.551099 16.6267 0.0972503 16.0499Z" fill="#0F1E33"/>
<path d="M50.3578 18.5048C51.5183 17.0113 52.6854 15.5114 53.8459 14.018C54.222 13.5309 54.5915 13.0437 54.9611 12.5502C54.9611 13.5309 54.9611 14.5115 54.9611 15.4922C54.6045 16.0434 54.2414 16.5947 53.8848 17.1523C53.1457 18.2997 52.4131 19.4534 51.6739 20.6007C51.3822 20.3443 51.2071 19.9982 51.0061 19.6841C50.7663 19.2996 50.481 18.9406 50.3578 18.5048Z" fill="#0F1E33"/>
<path d="M3.01486 21.9211C2.8787 22.3378 2.61288 22.6775 2.39244 23.0428C1.71815 24.1773 1.03737 25.3054 0.356599 26.4335C0.30473 26.5169 0.265829 26.6258 0.168576 26.6643C0.0972567 26.6643 0.0842896 26.6194 0.0842896 26.5746C0.0907731 24.0684 0.0907731 21.5558 0.0972567 19.0496C1.06979 20.011 2.04232 20.9661 3.01486 21.9211Z" fill="#0F1E33"/>
<path d="M54.9546 17.9792C54.9611 20.229 54.9611 22.4788 54.9676 24.7286C54.9676 24.7606 54.9481 24.7863 54.9222 24.876C54.3387 24.1581 53.7811 23.4787 53.23 22.7865C52.8864 22.357 52.5622 21.9147 52.238 21.4725C52.1343 21.3315 52.0046 21.2097 51.9916 21.0238C52.4455 20.511 52.9642 20.0559 53.418 19.5432C53.9043 19.0047 54.4424 18.5048 54.9546 17.9792Z" fill="#0F1E33"/>
<path d="M41.8902 0.0256484C41.7476 0.640978 41.6114 1.26272 41.3715 1.85241C41.1446 1.74344 41.0668 1.50629 40.9177 1.33322C40.6 0.974282 40.2953 0.60893 39.984 0.249987C39.9322 0.1923 39.8349 0.147432 39.8738 0.0512871C39.9062 -0.0320388 39.997 0.00641934 40.0619 0.00641934C40.6713 0.012829 41.2808 0.0192387 41.8902 0.0256484Z" fill="#0F1E33"/>
<path d="M0.0518408 30.7473C0.0388737 30.7345 0.0129395 30.7088 0.0129395 30.7088C0.0453572 30.664 0.0648079 30.6896 0.0842586 30.7216C0.0712914 30.7281 0.0648079 30.7409 0.0518408 30.7473Z" fill="#0F1E33"/>
</g>
<defs>
<clipPath id="clip0">
<path d="M0 10C0 4.47715 4.47715 0 10 0H45C50.5228 0 55 4.47715 55 10V62C55 67.5229 50.5228 72 45 72H10C4.47715 72 0 67.5229 0 62V10Z" fill="white"/>
</clipPath>
</defs>
</svg>
